<svg width="31" height="32" viewBox="0 0 31 32" fill="none" xmlns="http://www.w3.org/2000/svg">
<g clip-path="url(#clip0_379_319)">
<path d="M27.9037 18.2213L25.2812 15.5989V12.125C25.2782 9.72428 24.3852 7.40995 22.7747 5.62951C21.1643 3.84908 18.9509 2.72903 16.5625 2.48594V0.5H14.625V2.48594C12.2366 2.72903 10.0232 3.84908 8.41276 5.62951C6.80232 7.40995 5.90925 9.72428 5.90625 12.125V15.5989L3.28384 18.2213C3.10216 18.403 3.00005 18.6493 3 18.9062V21.8125C3 22.0694 3.10206 22.3158 3.28374 22.4975C3.46542 22.6792 3.71182 22.7812 3.96875 22.7812H10.75V23.75C10.75 25.0346 11.2603 26.2667 12.1687 27.175C13.0771 28.0834 14.3091 28.5938 15.5938 28.5938C16.8784 28.5938 18.1104 28.0834 19.0188 27.175C19.9272 26.2667 20.4375 25.0346 20.4375 23.75V22.7812H27.2188C27.4757 22.7812 27.7221 22.6792 27.9038 22.4975C28.0854 22.3158 28.1875 22.0694 28.1875 21.8125V18.9062C28.1874 18.6493 28.0853 18.403 27.9037 18.2213ZM18.5 23.75C18.5 24.5208 18.1938 25.26 17.6488 25.805C17.1038 26.3501 16.3645 26.6562 15.5938 26.6562C14.823 26.6562 14.0837 26.3501 13.5387 25.805C12.9937 25.26 12.6875 24.5208 12.6875 23.75V22.7812H18.5V23.75Z" fill="black"/>
</g>
<defs>
<clipPath id="clip0_379_319">
<rect width="31" height="31" fill="white" transform="translate(0 0.5)"/>
</clipPath>
</defs>
</svg>
