<svg width="38" height="38" viewBox="0 0 38 38" fill="none" xmlns="http://www.w3.org/2000/svg">
<path d="M14.6458 34.8332L14.0125 29.7665C13.6694 29.6346 13.3464 29.4762 13.0435 29.2915C12.7405 29.1068 12.4434 28.9089 12.1521 28.6978L7.44166 30.6769L3.08749 23.1561L7.16458 20.0686C7.13819 19.8839 7.12499 19.706 7.12499 19.535V18.4663C7.12499 18.2942 7.13819 18.1158 7.16458 17.9311L3.08749 14.8436L7.44166 7.32275L12.1521 9.30192C12.4424 9.09081 12.7458 8.89289 13.0625 8.70817C13.3792 8.52345 13.6958 8.36511 14.0125 8.23317L14.6458 3.1665H23.3542L23.9875 8.23317C24.3305 8.36511 24.6541 8.52345 24.9581 8.70817C25.2621 8.89289 25.5587 9.09081 25.8479 9.30192L30.5583 7.32275L34.9125 14.8436L30.8354 17.9311C30.8618 18.1158 30.875 18.2942 30.875 18.4663V19.5334C30.875 19.7055 30.8486 19.8839 30.7958 20.0686L34.8729 23.1561L30.5187 30.6769L25.8479 28.6978C25.5576 28.9089 25.2542 29.1068 24.9375 29.2915C24.6208 29.4762 24.3042 29.6346 23.9875 29.7665L23.3542 34.8332H14.6458ZM19.0792 24.5415C20.6097 24.5415 21.916 24.0005 22.9979 22.9186C24.0799 21.8366 24.6208 20.5304 24.6208 18.9998C24.6208 17.4693 24.0799 16.163 22.9979 15.0811C21.916 13.9991 20.6097 13.4582 19.0792 13.4582C17.5222 13.4582 16.2091 13.9991 15.1398 15.0811C14.0705 16.163 13.5364 17.4693 13.5375 18.9998C13.5385 20.5304 14.0732 21.8366 15.1414 22.9186C16.2096 24.0005 17.5222 24.5415 19.0792 24.5415Z" fill="black"/>
</svg>
