<svg width="38" height="38" viewBox="0 0 38 38" fill="none" xmlns="http://www.w3.org/2000/svg">
<path fill-rule="evenodd" clip-rule="evenodd" d="M33.592 5.23196C33.0632 2.7208 30.8275 1.06621 28.2831 1.19446C25.859 1.31638 22.0843 1.59821 16.7794 2.24263C11.4752 2.88625 7.7425 3.51642 5.36117 3.97717C2.85871 4.46246 1.09092 6.60709 1.19146 9.17209C1.27696 11.3508 1.50417 14.6243 2.06229 19.1241C2.30296 21.0621 2.54837 22.765 2.78429 24.2462C2.82862 27.3883 2.96954 29.7776 3.11679 31.4908C3.35508 34.2513 5.5385 36.3009 8.25867 36.4838C10.678 36.6461 14.455 36.8123 19.7909 36.8123C25.1267 36.8123 28.9045 36.6461 31.3239 36.4838C34.044 36.3009 36.2275 34.2513 36.465 31.4908C36.6439 29.4182 36.8125 26.3544 36.8125 22.1665C36.8125 17.9778 36.6439 14.9148 36.4658 12.8415C36.4038 12.0707 36.1773 11.3222 35.8014 10.6465C35.4256 9.97075 34.9092 9.38348 34.2871 8.9243C34.0804 7.68895 33.8486 6.45791 33.592 5.23196ZM19.7917 10.6865C14.5208 10.6865 10.8142 10.8504 8.47083 11.008C7.25642 11.0903 6.37133 11.9627 6.27238 13.1138C6.10138 15.0898 5.93671 18.0617 5.93671 22.1665C5.93671 26.2697 6.10138 29.2424 6.27238 31.2192C6.37133 32.3703 7.25642 33.2427 8.47083 33.3243C10.8142 33.4818 14.5208 33.6457 19.7917 33.6457C25.0618 33.6457 28.7684 33.4818 31.1117 33.3243C32.3261 33.2427 33.2112 32.3703 33.3102 31.2184C33.4812 29.2424 33.6458 26.2705 33.6458 22.1665C33.6458 18.0625 33.4812 15.0898 33.3102 13.1138C33.2112 11.9627 32.3261 11.0903 31.1117 11.008C28.7684 10.8504 25.0626 10.6865 19.7917 10.6865ZM8.98462 13.6664C8.5647 13.6664 8.16197 13.8332 7.86504 14.1301C7.56811 14.4271 7.40129 14.8298 7.40129 15.2497C7.40129 15.6696 7.56811 16.0724 7.86504 16.3693C8.16197 16.6662 8.5647 16.833 8.98462 16.833H15.1596C15.5796 16.833 15.9823 16.6662 16.2792 16.3693C16.5761 16.0724 16.743 15.6696 16.743 15.2497C16.743 14.8298 16.5761 14.4271 16.2792 14.1301C15.9823 13.8332 15.5796 13.6664 15.1596 13.6664H8.98462ZM7.40129 29.0809C7.40129 28.661 7.56811 28.2583 7.86504 27.9613C8.16197 27.6644 8.5647 27.4976 8.98462 27.4976H30.5971C31.017 27.4976 31.4198 27.6644 31.7167 27.9613C32.0136 28.2583 32.1805 28.661 32.1805 29.0809C32.1805 29.5008 32.0136 29.9036 31.7167 30.2005C31.4198 30.4974 31.017 30.6643 30.5971 30.6643H8.98462C8.5647 30.6643 8.16197 30.4974 7.86504 30.2005C7.56811 29.9036 7.40129 29.5008 7.40129 29.0809ZM8.98462 18.277C8.5647 18.277 8.16197 18.4439 7.86504 18.7408C7.56811 19.0377 7.40129 19.4405 7.40129 19.8604C7.40129 20.2803 7.56811 20.683 7.86504 20.98C8.16197 21.2769 8.5647 21.4437 8.98462 21.4437H15.1596C15.5796 21.4437 15.9823 21.2769 16.2792 20.98C16.5761 20.683 16.743 20.2803 16.743 19.8604C16.743 19.4405 16.5761 19.0377 16.2792 18.7408C15.9823 18.4439 15.5796 18.277 15.1596 18.277H8.98462ZM7.40208 24.5415C7.40208 24.1216 7.5689 23.7189 7.86583 23.4219C8.16276 23.125 8.56549 22.9582 8.98542 22.9582H15.1604C15.5803 22.9582 15.9831 23.125 16.28 23.4219C16.5769 23.7189 16.7438 24.1216 16.7438 24.5415C16.7438 24.9614 16.5769 25.3642 16.28 25.6611C15.9831 25.958 15.5803 26.1248 15.1604 26.1248H8.98542C8.56549 26.1248 8.16276 25.958 7.86583 25.6611C7.5689 25.3642 7.40208 24.9614 7.40208 24.5415ZM22.287 13.9237C23.0787 13.8841 24.0873 13.854 25.3333 13.854C26.5794 13.854 27.588 13.8841 28.3797 13.9237C29.9337 14.002 31.1228 15.1911 31.2012 16.7452C31.2407 17.5368 31.2708 18.5454 31.2708 19.7915C31.2708 21.0376 31.2407 22.0462 31.2012 22.8378C31.1228 24.3919 29.9337 25.581 28.3797 25.6593C27.588 25.6989 26.5794 25.729 25.3333 25.729C24.0873 25.729 23.0787 25.6989 22.287 25.6593C20.733 25.581 19.5439 24.3919 19.4655 22.8378C19.4259 22.0462 19.3958 21.0376 19.3958 19.7915C19.3958 18.5454 19.4259 17.5368 19.4655 16.7452C19.5439 15.1911 20.733 14.002 22.287 13.9237Z" fill="black"/>
</svg>
