<svg width="38" height="38" viewBox="0 0 38 38" fill="none" xmlns="http://www.w3.org/2000/svg">
<path d="M11.2812 19C14.2325 19 16.625 16.6075 16.625 13.6562C16.625 10.705 14.2325 8.3125 11.2812 8.3125C8.32998 8.3125 5.9375 10.705 5.9375 13.6562C5.9375 16.6075 8.32998 19 11.2812 19Z" fill="black"/>
<path d="M17.3672 21.9688C15.2772 20.9074 12.9705 20.4844 11.2812 20.4844C7.97258 20.4844 1.1875 22.5135 1.1875 26.5703V29.6875H12.3203V28.4948C12.3203 27.0846 12.9141 25.6708 13.9531 24.4922C14.7821 23.5511 15.9429 22.6775 17.3672 21.9688Z" fill="black"/>
<path d="M25.2344 21.375C21.3698 21.375 13.6562 23.7619 13.6562 28.5V32.0625H36.8125V28.5C36.8125 23.7619 29.0989 21.375 25.2344 21.375Z" fill="black"/>
<path d="M25.2344 19C28.8415 19 31.7656 16.0759 31.7656 12.4688C31.7656 8.86164 28.8415 5.9375 25.2344 5.9375C21.6273 5.9375 18.7031 8.86164 18.7031 12.4688C18.7031 16.0759 21.6273 19 25.2344 19Z" fill="black"/>
</svg>
