<svg width="42" height="42" viewBox="0 0 42 42" fill="none" xmlns="http://www.w3.org/2000/svg">
<path d="M21 21C22.8171 21 24.5934 20.4612 26.1043 19.4516C27.6152 18.4421 28.7928 17.0072 29.4881 15.3284C30.1835 13.6496 30.3655 11.8023 30.011 10.0201C29.6565 8.23791 28.7814 6.60086 27.4965 5.31596C26.2116 4.03107 24.5746 3.15604 22.7924 2.80154C21.0102 2.44704 19.1629 2.62898 17.4841 3.32436C15.8053 4.01974 14.3704 5.19733 13.3609 6.7082C12.3513 8.21908 11.8125 9.99539 11.8125 11.8125C11.8125 14.2492 12.7805 16.5861 14.5035 18.309C16.2264 20.032 18.5633 21 21 21ZM21 23.625C15.3054 23.625 3.9375 27.1425 3.9375 34.125V39.375H38.0625V34.125C38.0625 27.1425 26.6946 23.625 21 23.625Z" fill="black"/>
</svg>
