<svg width="45" height="44" viewBox="0 0 45 44" fill="none" xmlns="http://www.w3.org/2000/svg">
<path d="M40.5909 30.005L34.2281 29.2947C33.4799 29.2088 32.7216 29.2898 32.01 29.5316C31.2985 29.7734 30.6522 30.1697 30.1198 30.6908L25.5105 35.1977C18.3997 31.6606 12.6197 26.0091 9.0023 19.0562L13.6366 14.5249C14.7138 13.4716 15.2399 12.002 15.0645 10.5079L14.338 4.33542C14.1965 3.14034 13.6102 2.03795 12.6909 1.2384C11.7715 0.438847 10.5834 -0.00195968 9.35301 6.54955e-06H5.01929C2.18859 6.54955e-06 -0.166151 2.30243 0.00920222 5.07024C1.33687 25.988 18.4463 42.6928 39.8143 43.991C42.645 44.1625 44.9998 41.86 44.9998 39.0922V34.8548C45.0248 32.3809 43.121 30.2989 40.5909 30.005Z" fill="black"/>
</svg>
