<svg width="34" height="34" viewBox="0 0 34 34" fill="none" xmlns="http://www.w3.org/2000/svg">
<path d="M17 22.6667C16.2208 22.6667 15.5541 22.3895 14.9997 21.8351C14.4453 21.2807 14.1676 20.6134 14.1667 19.8333C14.1657 19.0532 14.4434 18.3864 14.9997 17.833C15.5559 17.2796 16.2227 17.0019 17 17C17.7773 16.9981 18.4445 17.2758 19.0017 17.833C19.559 18.3902 19.8362 19.057 19.8333 19.8333C19.8305 20.6097 19.5533 21.2769 19.0017 21.8351C18.4502 22.3932 17.7829 22.6704 17 22.6667ZM10.4479 9.91667H23.5521L25.3583 6.30417C25.5944 5.83194 25.5765 5.37153 25.3045 4.92292C25.0325 4.47431 24.6254 4.25 24.0833 4.25H9.91667C9.37361 4.25 8.96656 4.47431 8.6955 4.92292C8.42444 5.37153 8.4065 5.83194 8.64167 6.30417L10.4479 9.91667ZM11.9 29.75H22.1C24.225 29.75 26.0312 29.0124 27.5187 27.5372C29.0062 26.0619 29.75 24.2496 29.75 22.1C29.75 21.2028 29.5965 20.3292 29.2896 19.4792C28.9826 18.6292 28.5458 17.8618 27.9792 17.1771L24.2958 12.75H9.70417L6.02083 17.1771C5.45417 17.8618 5.01736 18.6292 4.71042 19.4792C4.40347 20.3292 4.25 21.2028 4.25 22.1C4.25 24.2486 4.98808 26.061 6.46425 27.5372C7.94042 29.0133 9.75233 29.7509 11.9 29.75Z" fill="black"/>
</svg>
