<svg width="37" height="36" viewBox="0 0 37 36" fill="none" xmlns="http://www.w3.org/2000/svg">
<path d="M33.7 36L21.1 23.4C20.1 24.2 18.95 24.8333 17.65 25.3C16.35 25.7667 14.9667 26 13.5 26C9.86667 26 6.792 24.7413 4.276 22.224C1.76 19.7067 0.501334 16.632 0.500001 13C0.498668 9.368 1.75733 6.29333 4.276 3.776C6.79467 1.25867 9.86933 0 13.5 0C17.1307 0 20.206 1.25867 22.726 3.776C25.246 6.29333 26.504 9.368 26.5 13C26.5 14.4667 26.2667 15.85 25.8 17.15C25.3333 18.45 24.7 19.6 23.9 20.6L36.5 33.2L33.7 36ZM13.5 22C16 22 18.1253 21.1253 19.876 19.376C21.6267 17.6267 22.5013 15.5013 22.5 13C22.4987 10.4987 21.624 8.374 19.876 6.626C18.128 4.878 16.0027 4.00267 13.5 4C10.9973 3.99733 8.87267 4.87267 7.126 6.626C5.37933 8.37933 4.504 10.504 4.5 13C4.496 15.496 5.37133 17.6213 7.126 19.376C8.88067 21.1307 11.0053 22.0053 13.5 22Z" fill="black"/>
</svg>
