<svg width="21" height="22" viewBox="0 0 21 22" fill="none" xmlns="http://www.w3.org/2000/svg">
<path d="M2.625 1.15625C1.54088 1.15625 0.65625 2.04088 0.65625 3.125C0.657217 3.54515 0.792126 3.95405 1.04138 4.29228C1.29063 4.63052 1.64123 4.88047 2.04225 5.00581L3.51422 17.2304C3.24131 17.4094 3.01716 17.6534 2.86194 17.9404C2.70673 18.2275 2.6253 18.5487 2.625 18.875C2.625 19.9591 3.50962 20.8438 4.59375 20.8438H16.4062C17.4904 20.8438 18.375 19.9591 18.375 18.875C18.375 18.1728 18.0049 17.5559 17.4497 17.2068L18.9171 5.01762C19.3276 4.89894 19.6886 4.65031 19.9458 4.30906C20.203 3.96781 20.3427 3.55234 20.3438 3.125C20.3438 2.04088 19.4591 1.15625 18.375 1.15625H2.625ZM1.96875 3.125C1.96875 2.76538 2.26538 2.46875 2.625 2.46875H18.375C18.7346 2.46875 19.0312 2.76538 19.0312 3.125C19.0312 3.48463 18.7346 3.78125 18.375 3.78125H2.625C2.26538 3.78125 1.96875 3.48463 1.96875 3.125ZM17.0441 5.09375L16.6267 8.55547L16.4089 8.97022L15.1882 6.65037L16.0059 5.09375H17.0441ZM14.513 5.09375L14.4408 5.23156L14.3686 5.09375H14.513ZM12.8743 5.09375L13.6933 6.65234L12.5042 8.91313L11.2547 6.53816L12.0146 5.09375H12.8743ZM10.5157 5.09375L10.5052 5.11344L10.4948 5.09375H10.5157ZM8.99588 5.09375L9.75581 6.53816L8.50631 8.91378L7.31653 6.65103L8.13553 5.09375H8.99588ZM6.63797 5.09375L6.56775 5.22762L6.49687 5.09375H6.63797ZM4.998 5.09375L5.81831 6.65366L4.59966 8.9735L4.31944 8.44063L3.9165 5.09375H4.998ZM7.27387 16.9062H5.80059L6.53756 15.5065L7.27387 16.9062ZM11.2114 16.9062H9.79781L10.5046 15.5623L11.2114 16.9062ZM15.2093 16.9062H13.7353L14.4716 15.5058L15.2093 16.9062ZM15.2217 14.0804L16.1818 12.2541L15.8235 15.2249L15.2217 14.0804ZM4.76438 12.1366L5.78681 14.0811L5.14566 15.3011L4.76438 12.1366ZM14.4395 8.07312L15.6601 10.3949L14.471 12.6551L13.251 10.3346L14.4395 8.07312ZM12.5016 11.7606L13.7222 14.0804L12.4727 16.4561L11.2527 14.1362L12.5016 11.7606ZM8.53584 16.4567L7.28634 14.0811L8.50566 11.7632L9.75516 14.1388L8.53584 16.4567ZM10.5046 12.7135L9.25509 10.3378L10.5046 7.96353L11.7541 10.3392L10.5046 12.7135ZM6.53691 12.6564L5.34647 10.3943L6.56644 8.07575L7.75622 10.3385L6.53691 12.6564ZM4.59375 18.2188H16.4062C16.7659 18.2188 17.0625 18.5154 17.0625 18.875C17.0625 19.2346 16.7659 19.5312 16.4062 19.5312H4.59375C4.23412 19.5312 3.9375 19.2346 3.9375 18.875C3.9375 18.5154 4.23412 18.2188 4.59375 18.2188Z" fill="black"/>
</svg>
