<svg width="42" height="50" viewBox="0 0 42 50" fill="none" xmlns="http://www.w3.org/2000/svg">
<path d="M16.9999 31.2498C7.79158 31.2498 0.333252 34.979 0.333252 39.5832V43.7498H33.6666V39.5832C33.6666 34.979 26.2083 31.2498 16.9999 31.2498ZM8.66658 18.7498C8.66658 20.96 9.54456 23.0796 11.1074 24.6424C12.6702 26.2052 14.7898 27.0832 16.9999 27.0832C19.2101 27.0832 21.3297 26.2052 22.8925 24.6424C24.4553 23.0796 25.3333 20.96 25.3333 18.7498M15.9583 4.1665C15.3333 4.1665 14.9166 4.604 14.9166 5.20817V11.4582H12.8333V6.24984C12.8333 6.24984 8.14575 8.0415 8.14575 14.0623C8.14575 14.0623 6.58325 14.354 6.58325 16.6665H27.4166C27.3124 14.354 25.8541 14.0623 25.8541 14.0623C25.8541 8.0415 21.1666 6.24984 21.1666 6.24984V11.4582H19.0833V5.20817C19.0833 4.604 18.6874 4.1665 18.0416 4.1665H15.9583Z" fill="black"/>
</svg>
